ffmpeg version 3.4.8-0ubuntu0.2 Copyright (c) 2000-2020 the FFmpeg developers
  built with gcc 7 (Ubuntu 7.5.0-3ubuntu1~18.04)
  configuration: --prefix=/usr --extra-version=0ubuntu0.2 --toolchain=hardened --libdir=/usr/lib/x86_64-linux-gnu --incdir=/usr/include/x86_64-linux-gnu --enable-gpl --disable-stripping --enable-avresample --enable-avisynth --enable-gnutls --enable-ladspa --enable-libass --enable-libbluray --enable-libbs2b --enable-libcaca --enable-libcdio --enable-libflite --enable-libfontconfig --enable-libfreetype --enable-libfribidi --enable-libgme --enable-libgsm --enable-libmp3lame --enable-libmysofa --enable-libopenjpeg --enable-libopenmpt --enable-libopus --enable-libpulse --enable-librubberband --enable-librsvg --enable-libshine --enable-libsnappy --enable-libsoxr --enable-libspeex --enable-libssh --enable-libtheora --enable-libtwolame --enable-libvorbis --enable-libvpx --enable-libwavpack --enable-libwebp --enable-libx265 --enable-libxml2 --enable-libxvid --enable-libzmq --enable-libzvbi --enable-omx --enable-openal --enable-opengl --enable-sdl2 --enable-libdc1394 --enable-libdrm --enable-libiec61883 --enable-chromaprint --enable-frei0r --enable-libopencv --enable-libx264 --enable-shared
  libavutil      55. 78.100 / 55. 78.100
  libavcodec     57.107.100 / 57.107.100
  libavformat    57. 83.100 / 57. 83.100
  libavdevice    57. 10.100 / 57. 10.100
  libavfilter     6.107.100 /  6.107.100
  libavresample   3.  7.  0 /  3.  7.  0
  libswscale      4.  8.100 /  4.  8.100
  libswresample   2.  9.100 /  2.  9.100
  libpostproc    54.  7.100 / 54.  7.100
[rawvideo @ 0x5618678a6a20] Estimating duration from bitrate, this may be inaccurate
Input #0, rawvideo, from '../../SVC-Encoder-20220109T061506Z-001/SVC-Encoder/Dataset/RollerCoaster/6f_2x2/tile_yuv/f3_t3_480x480.yuv':
  Duration: 00:00:10.00, start: 0.000000, bitrate: 82944 kb/s
    Stream #0:0: Video: rawvideo (I420 / 0x30323449), yuv420p, 480x480, 82944 kb/s, 30 tbr, 30 tbn, 30 tbc
Stream mapping:
  Stream #0:0 -> #0:0 (rawvideo (native) -> h264 (libx264))
Press [q] to stop, [?] for help
[libx264 @ 0x5618678b3c60] using cpu capabilities: MMX2 SSE2Fast LZCNT SSSE3 SSE4.2 AVX
[libx264 @ 0x5618678b3c60] profile High, level 3.0
Output #0, rawvideo, to 'RollerCoaster_f3_t3_480x480_x264_QP_28.h264':
  Metadata:
    encoder         : Lavf57.83.100
    Stream #0:0: Video: h264 (libx264), yuv420p, 480x480, q=-1--1, 30 fps, 30 tbn, 30 tbc
    Metadata:
      encoder         : Lavc57.107.100 libx264
    Side data:
      cpb: bitrate max/min/avg: 0/0/0 buffer size: 0 vbv_delay: -1
frame=  137 fps=0.0 q=34.0 PSNR=Y:nan U:nan V:nan *:nan size=      83kB time=00:00:03.13 bitrate= 217.0kbits/s speed=6.23x    frame=  240 fps=239 q=34.0 PSNR=Y:nan U:nan V:nan *:nan size=     165kB time=00:00:06.56 bitrate= 205.6kbits/s speed=6.54x    frame=  300 fps=209 q=34.0 LPSNR=Y:inf U:inf V:inf *:inf size=     247kB time=00:00:09.93 bitrate= 203.8kbits/s speed=6.93x    
video:247kB audio:0kB subtitle:0kB other streams:0kB global headers:0kB muxing overhead: 0.000000%
[libx264 @ 0x5618678b3c60] frame I:2     Avg QP:26.77  size: 12407  PSNR Mean Y:44.05 U:45.55 V:44.79 Avg:44.39 Global:44.34
[libx264 @ 0x5618678b3c60] frame P:76    Avg QP:27.76  size:  1724  PSNR Mean Y:42.68 U:45.49 V:44.51 Avg:43.32 Global:43.30
[libx264 @ 0x5618678b3c60] frame B:222   Avg QP:33.48  size:   438  PSNR Mean Y:41.74 U:45.21 V:44.31 Avg:42.53 Global:42.52
[libx264 @ 0x5618678b3c60] consecutive B-frames:  1.3%  0.0%  0.0% 98.7%
[libx264 @ 0x5618678b3c60] mb I  I16..4: 39.4% 39.7% 20.9%
[libx264 @ 0x5618678b3c60] mb P  I16..4:  2.2%  3.3%  0.1%  P16..4: 26.1%  8.8%  3.0%  0.0%  0.0%    skip:56.5%
[libx264 @ 0x5618678b3c60] mb B  I16..4:  0.1%  0.3%  0.0%  B16..8: 23.6%  1.9%  0.1%  direct: 0.2%  skip:73.8%  L0:47.1% L1:50.8% BI: 2.1%
[libx264 @ 0x5618678b3c60] 8x8 transform intra:55.0% inter:75.8%
[libx264 @ 0x5618678b3c60] coded y,uvDC,uvAC intra: 38.5% 58.8% 13.8% inter: 3.4% 3.7% 0.0%
[libx264 @ 0x5618678b3c60] i16 v,h,dc,p: 39% 33% 13% 14%
[libx264 @ 0x5618678b3c60] i8 v,h,dc,ddl,ddr,vr,hd,vl,hu: 21% 24% 20%  6%  4%  3%  5%  5% 12%
[libx264 @ 0x5618678b3c60] i4 v,h,dc,ddl,ddr,vr,hd,vl,hu: 21% 22% 25%  7%  4%  2%  4%  3% 10%
[libx264 @ 0x5618678b3c60] i8c dc,h,v,p: 45% 24% 13% 18%
[libx264 @ 0x5618678b3c60] Weighted P-Frames: Y:0.0% UV:0.0%
[libx264 @ 0x5618678b3c60] ref P L0: 50.1% 11.8% 23.8% 14.3%
[libx264 @ 0x5618678b3c60] ref B L0: 66.6% 25.3%  8.1%
[libx264 @ 0x5618678b3c60] ref B L1: 77.2% 22.8%
[libx264 @ 0x5618678b3c60] PSNR Mean Y:41.995 U:45.285 V:44.364 Avg:42.740 Global:42.712 kb/s:202.47
